<svg xmlns="http://www.w3.org/2000/svg" viewBox="0 0 2084 391" role="img" aria-label="Elefante"><path fill="currentColor" fill-rule="evenodd" d="M397.0,381.9C378.7,381.0 377.3,380.8 374.0,378.5C372.0,377.1 369.7,376.0 368.9,376.0C366.6,376.0 356.3,369.1 350.1,363.5C341.2,355.3 334.1,343.8 330.6,331.5C328.3,323.6 327.9,298.9 327.5,168.9L327.0,28.2L329.3,24.9C332.7,19.8 337.0,18.6 365.0,14.9C369.7,14.3 376.9,13.1 381.0,12.3C385.1,11.4 392.9,10.5 398.2,10.3C407.6,9.8 408.0,9.9 410.5,12.4C412.7,14.6 413.0,15.7 413.0,22.7C413.1,27.0 413.2,91.9 413.3,167.0C413.6,317.9 413.1,307.5 419.9,313.3C424.2,316.8 428.4,317.5 435.7,315.6C450.7,311.7 452.3,313.4 457.9,339.0C462.6,360.6 462.0,365.1 453.2,370.7C446.9,374.8 426.6,382.1 420.5,382.5C418.3,382.7 407.7,382.4 397.0,381.9ZM1079.0,381.9C1042.0,379.2 1010.9,362.2 992.0,334.5C981.8,319.5 977.2,308.3 971.9,285.6C968.3,269.9 968.5,235.9 972.3,216.9C980.1,178.3 997.9,150.6 1025.7,133.8C1043.9,122.8 1066.3,118.4 1091.4,120.9C1116.3,123.3 1134.0,131.0 1152.0,147.2C1162.2,156.3 1165.9,155.3 1169.1,142.4C1171.0,134.5 1173.7,130.0 1177.5,128.4C1181.9,126.6 1225.7,126.4 1232.6,128.1C1241.1,130.3 1240.4,123.3 1241.1,220.5C1241.5,284.7 1242.0,307.8 1242.9,311.5C1243.6,314.2 1245.0,320.6 1246.0,325.5C1247.0,330.4 1249.0,340.2 1250.5,347.1C1255.0,368.6 1253.8,371.4 1239.0,373.0C1234.3,373.6 1228.5,374.4 1226.0,375.0C1223.5,375.5 1219.5,375.9 1217.0,375.9C1214.5,376.0 1206.7,376.9 1199.7,378.1C1181.6,381.2 1179.6,380.2 1174.5,364.5C1169.7,349.8 1167.2,348.7 1157.5,357.4C1148.1,365.8 1135.7,373.1 1124.0,377.2C1118.2,379.2 1097.3,383.1 1093.0,382.8C1091.6,382.8 1085.3,382.3 1079.0,381.9ZM145.0,380.5C131.0,379.2 124.1,377.6 106.0,371.9C84.4,365.0 61.6,349.9 49.8,334.9C46.3,330.4 41.8,324.7 39.7,322.2C31.4,311.9 21.0,288.0 16.2,268.0C10.5,244.1 10.1,241.1 9.1,213.5C8.0,181.0 8.4,127.3 9.9,117.3C11.3,108.1 17.7,88.6 22.9,77.9C26.6,70.2 37.4,54.6 43.9,47.7C58.2,32.3 86.4,17.3 112.5,11.3C125.1,8.4 193.2,8.8 210.8,11.9C217.6,13.0 225.5,14.0 228.3,14.0C231.2,14.0 235.1,14.5 237.0,15.0C238.9,15.6 245.2,16.7 251.1,17.5C271.3,20.2 277.3,22.5 278.6,27.6C279.3,30.4 274.8,55.2 270.4,73.0C268.6,80.1 267.4,83.1 265.5,84.7C262.4,87.4 261.5,87.4 248.5,85.5C243.0,84.7 233.8,83.6 228.0,83.0C222.2,82.4 214.8,81.5 211.5,81.1C208.2,80.6 192.0,80.1 175.4,80.1C146.1,80.0 145.2,80.1 137.0,82.5C116.9,88.5 105.8,99.4 98.9,120.1C96.3,128.0 96.0,130.0 96.0,142.2C96.0,151.8 96.4,156.1 97.3,157.4C98.6,159.2 101.8,159.2 159.1,159.2C207.2,159.2 220.1,159.4 222.7,160.5C228.5,163.0 229.0,165.2 229.0,191.7C229.0,218.0 228.7,219.3 223.0,222.3C219.7,224.1 216.5,224.1 164.5,223.7C106.7,223.2 99.6,223.5 97.3,226.5C94.3,230.7 100.6,258.5 107.7,272.3C112.0,280.8 123.8,292.8 132.0,297.0C148.3,305.5 166.8,309.4 191.0,309.4C211.7,309.5 221.3,307.5 251.7,296.9C270.9,290.1 271.3,290.4 281.6,319.5C283.9,326.1 286.6,333.5 287.5,336.0C291.9,347.9 289.0,354.5 276.6,360.4C258.9,368.8 248.3,372.6 235.5,375.2C232.8,375.7 227.1,377.0 223.0,378.0C207.4,381.9 171.1,383.1 145.0,380.5ZM599.5,381.1C597.9,380.6 594.2,380.2 591.5,380.1C577.3,379.7 544.3,367.9 532.4,358.9C529.0,356.3 524.1,352.8 521.5,351.0C508.8,342.3 493.8,322.9 488.0,307.8C481.0,289.4 478.8,278.3 478.2,257.8C477.8,243.0 478.1,237.8 479.3,232.3C480.2,228.6 481.2,223.5 481.5,221.0C482.3,215.3 488.4,197.1 491.8,190.5C503.6,167.0 523.8,148.0 550.9,134.5C561.6,129.2 565.2,127.9 581.5,124.0C600.4,119.5 641.3,119.5 657.9,124.0C662.0,125.1 666.0,126.0 666.8,126.0C670.5,126.0 691.5,135.9 700.4,141.9C722.8,156.8 734.4,179.1 734.2,206.6C733.9,258.3 678.0,287.0 598.0,276.7C591.7,275.9 581.4,273.8 575.1,272.2C562.0,268.7 560.0,269.0 560.0,274.5C560.0,282.9 567.3,294.9 577.2,303.0C591.6,314.6 603.3,318.0 629.1,318.0C649.2,318.0 657.7,316.8 675.6,311.5C700.4,304.1 702.8,303.6 705.4,304.8C709.7,306.7 710.9,310.1 713.9,328.2C715.5,337.8 717.4,347.7 718.0,350.0C719.5,355.4 718.6,360.1 715.7,362.8C709.2,368.8 680.0,378.3 662.0,380.1C650.2,381.4 603.2,382.1 599.5,381.1ZM1709.7,380.9C1679.9,377.8 1655.8,359.8 1644.4,332.0C1642.3,326.9 1641.4,322.4 1640.5,311.5C1639.6,302.3 1638.6,296.2 1637.4,293.7C1635.7,290.2 1635.7,289.7 1637.3,285.2C1638.6,281.6 1639.0,277.2 1639.0,266.5C1639.0,258.8 1639.0,239.7 1639.2,224.1L1639.4,195.7L1636.8,193.5C1634.6,191.6 1632.6,191.2 1623.1,190.7C1603.4,189.6 1602.5,188.2 1602.8,159.5C1603.1,136.1 1603.4,133.9 1606.6,130.7C1609.7,127.6 1612.8,127.0 1625.4,127.0C1631.4,127.0 1636.5,126.5 1637.9,125.7C1639.6,124.9 1643.5,118.2 1651.0,103.4C1664.0,77.6 1667.1,72.6 1671.3,70.9C1673.7,69.8 1680.4,69.5 1697.3,69.5L1720.2,69.5L1722.6,72.3C1725.0,75.1 1725.0,75.4 1725.0,95.3C1725.1,117.3 1725.8,123.7 1728.6,125.7C1730.0,126.7 1737.1,127.0 1759.7,127.0C1802.1,127.0 1800.0,125.3 1800.0,159.2C1800.0,183.4 1799.6,185.7 1795.1,188.7C1792.8,190.3 1788.9,190.6 1760.7,191.0L1728.8,191.5L1726.8,194.0C1724.8,196.5 1724.8,197.3 1725.4,247.0C1725.7,276.7 1726.4,299.0 1727.0,301.2C1728.3,305.6 1732.2,310.5 1736.1,312.5C1740.2,314.7 1756.4,314.4 1768.0,312.0C1780.1,309.5 1781.3,309.5 1784.5,312.2C1787.4,314.8 1790.4,325.2 1792.1,338.5C1792.6,342.9 1793.8,350.2 1794.7,354.8C1796.2,362.8 1796.2,363.2 1794.4,365.8C1786.7,376.5 1742.4,384.4 1709.7,380.9ZM1936.5,380.5C1930.5,379.7 1923.3,378.5 1920.6,377.6C1917.9,376.7 1914.7,376.0 1913.4,376.0C1909.9,376.0 1889.1,367.8 1879.7,362.6C1858.7,351.2 1840.4,332.1 1831.0,311.7C1815.9,279.0 1814.8,237.5 1828.1,201.2C1839.7,169.3 1867.2,142.9 1902.5,129.7C1933.2,118.2 1981.7,117.3 2014.5,127.7C2036.6,134.6 2058.4,151.8 2067.6,169.6C2083.5,199.9 2076.6,236.5 2051.5,255.7C2043.7,261.7 2026.6,270.4 2019.8,271.9C2017.3,272.5 2014.0,273.4 2012.4,274.1C2008.3,275.6 1988.7,278.0 1974.5,278.6C1961.0,279.2 1934.8,276.5 1920.0,273.0C1905.0,269.4 1903.3,269.3 1901.9,272.4C1900.3,275.8 1901.7,280.3 1906.7,288.9C1914.6,302.2 1927.1,310.9 1945.4,315.7C1955.3,318.2 1980.7,319.0 1992.0,317.0C2003.9,315.0 2013.0,312.8 2024.5,309.1C2049.2,301.1 2050.6,301.7 2054.4,322.5C2055.2,326.9 2056.6,334.3 2057.5,339.0C2060.0,351.0 2060.4,356.7 2059.0,359.9C2057.7,363.1 2047.7,369.5 2041.5,371.1C2039.3,371.6 2035.0,373.0 2032.0,374.0C2012.4,381.0 1967.0,384.0 1936.5,380.5ZM1505.8,378.5C1503.3,377.1 1500.1,370.6 1498.4,363.3C1498.1,361.8 1495.1,352.2 1491.9,342.0C1483.1,314.3 1483.2,314.7 1482.7,265.5L1482.3,222.5L1479.4,215.5C1473.1,200.3 1459.7,191.8 1444.3,193.5C1424.9,195.6 1408.0,205.8 1397.1,221.9L1393.5,227.3L1393.0,298.2L1392.5,369.2L1389.8,371.5C1385.9,374.8 1381.1,375.2 1345.0,374.8C1310.9,374.5 1308.9,374.2 1306.3,369.0C1305.3,367.1 1305.0,350.3 1305.0,293.5C1304.9,234.0 1304.7,219.3 1303.5,214.0C1302.7,210.4 1302.1,205.4 1302.0,202.9C1302.0,200.3 1301.1,193.1 1300.1,186.9C1299.0,180.6 1297.9,172.6 1297.5,169.0C1297.2,165.4 1296.2,159.0 1295.4,154.6C1293.0,141.5 1293.5,133.6 1296.8,130.0C1298.8,127.6 1300.6,126.8 1304.0,126.4C1309.7,125.8 1336.9,122.4 1348.0,120.9C1364.5,118.7 1368.2,118.7 1371.7,120.9C1374.1,122.4 1375.0,123.9 1375.5,126.7C1375.8,128.8 1376.7,133.4 1377.5,137.0C1378.3,140.6 1379.4,146.7 1380.0,150.5C1382.5,165.9 1385.6,166.7 1395.8,154.8C1413.3,134.4 1436.5,123.0 1464.2,121.0C1493.3,118.9 1513.0,123.9 1534.4,138.9C1553.2,152.0 1563.4,168.4 1569.1,194.8C1571.0,203.3 1571.1,208.3 1571.4,255.8C1571.7,304.0 1571.8,308.1 1573.8,316.5C1577.5,332.7 1579.3,342.8 1581.5,360.2C1582.6,368.2 1580.9,370.5 1573.3,371.9C1570.1,372.5 1564.1,373.7 1560.0,374.5C1555.9,375.3 1548.5,376.2 1543.5,376.6C1538.5,376.9 1531.7,377.8 1528.2,378.6C1520.0,380.4 1509.3,380.3 1505.8,378.5ZM837.5,376.0C835.9,375.6 828.7,375.2 821.7,375.1C798.0,374.9 798.8,376.3 798.3,332.0C797.8,287.6 797.7,291.9 798.4,263.5C799.1,230.4 798.2,194.6 796.4,192.3C795.3,190.7 793.4,190.5 782.5,190.5L769.8,190.5L767.1,187.4C764.7,184.8 764.2,183.1 763.6,176.5C762.8,167.5 763.9,136.6 765.1,133.3C766.7,129.0 770.5,127.6 781.4,127.5C793.0,127.3 795.6,126.7 797.1,123.8C797.7,122.6 798.6,113.5 799.1,103.6C800.7,66.6 808.1,48.5 828.6,30.5C843.0,18.0 858.5,11.8 881.5,9.5C889.2,8.7 897.1,8.3 899.0,8.5C900.9,8.8 910.8,9.5 921.0,10.0C940.2,11.1 945.7,12.2 957.2,17.3C960.3,18.7 963.4,20.8 964.0,22.1C965.6,24.9 964.8,33.7 962.5,40.5C961.5,43.2 960.2,48.0 959.5,51.0C957.2,61.3 954.0,72.1 952.4,74.5C950.1,78.0 946.2,78.4 935.8,76.2C920.2,72.8 913.5,72.6 905.9,74.9C896.8,77.8 890.9,82.5 887.1,90.1C884.1,96.1 884.0,96.8 884.0,109.7C884.0,128.4 881.5,127.0 913.8,127.0C927.9,127.0 941.1,127.5 943.1,128.0C950.3,130.0 950.5,130.4 950.8,156.4C951.3,192.2 952.4,191.0 921.8,191.0C903.4,191.0 900.5,191.2 896.0,193.0C893.2,194.1 890.1,195.0 889.0,195.0C883.9,195.0 884.0,193.5 883.5,282.1C883.2,327.4 882.7,365.7 882.4,367.1C882.1,368.6 880.8,370.8 879.4,372.1C877.0,374.3 875.8,374.5 861.2,375.2C852.6,375.5 844.4,376.1 843.0,376.3C841.6,376.6 839.1,376.5 837.5,376.0ZM1123.2,311.4C1133.4,308.2 1143.1,303.2 1149.0,298.1L1153.5,294.2L1153.8,256.6C1154.1,212.3 1154.6,214.8 1143.5,207.1C1115.4,187.6 1079.1,188.8 1062.4,209.6C1045.3,231.0 1043.0,262.8 1056.6,289.4C1061.1,298.3 1064.7,302.1 1073.3,307.2C1083.5,313.3 1085.9,313.9 1101.2,314.0C1113.2,314.0 1115.9,313.7 1123.2,311.4ZM637.7,230.9C647.7,229.5 654.1,226.8 658.4,221.9C664.6,215.1 665.5,205.6 660.9,196.3C653.0,180.5 614.8,175.9 591.2,187.9C574.4,196.5 561.0,212.5 564.0,220.5C566.7,227.7 613.4,234.3 637.7,230.9ZM1980.9,230.0C1996.6,227.9 2005.3,220.0 2005.4,207.6C2005.6,190.7 1990.5,181.0 1964.0,181.0C1953.0,181.0 1939.9,183.4 1933.7,186.6C1925.5,190.9 1915.8,198.4 1911.7,203.7C1900.9,217.8 1901.5,222.4 1914.1,224.9C1917.6,225.6 1923.1,226.9 1926.2,227.6C1938.9,230.8 1966.0,231.9 1980.9,230.0Z"/></svg>